<mxfile host="app.diagrams.net" modified="2023-10-05T00:53:52.727Z" agent="Mozilla/5.0 (Windows NT 10.0; Win64; x64) AppleWebKit/537.36 (KHTML, like Gecko) Chrome/117.0.0.0 Safari/537.36 Edg/117.0.2045.47" etag="dWUnLs3PwZBPRasQ6FAj" version="22.0.2" type="device">
  <diagram name="PÃ¡gina-1" id="ayFd2dsug_LEBnVzk-yX">
    <mxGraphModel dx="5853" dy="4962" grid="1" gridSize="10" guides="1" tooltips="1" connect="1" arrows="1" fold="1" page="1" pageScale="1" pageWidth="827" pageHeight="1169" math="0" shadow="0">
      <root>
        <mxCell id="0" />
        <mxCell id="1" parent="0" />
        <mxCell id="akscsmeylQkOnAOdpmwk-228" value="" style="rounded=0;whiteSpace=wrap;html=1;movable=0;resizable=0;rotatable=0;deletable=0;editable=0;locked=1;connectable=0;" vertex="1" parent="1">
          <mxGeometry x="1370" y="-920" width="830" height="720" as="geometry" />
        </mxCell>
        <mxCell id="akscsmeylQkOnAOdpmwk-229" value="&lt;font style=&quot;font-size: 20px;&quot;&gt;&lt;font style=&quot;font-size: 20px;&quot;&gt;Sistema GW&lt;/font&gt;S&lt;/font&gt;" style="text;html=1;strokeColor=none;fillColor=none;align=center;verticalAlign=middle;whiteSpace=wrap;rounded=0;" vertex="1" parent="1">
          <mxGeometry x="1717" y="-880" width="136" height="30" as="geometry" />
        </mxCell>
        <mxCell id="akscsmeylQkOnAOdpmwk-230" value="CRUD HardSkill" style="ellipse;whiteSpace=wrap;html=1;fillColor=#d5e8d4;strokeColor=#82b366;" vertex="1" parent="1">
          <mxGeometry x="1910" y="-830" width="120" height="80" as="geometry" />
        </mxCell>
        <mxCell id="akscsmeylQkOnAOdpmwk-233" value="Scrum" style="shape=umlActor;verticalLabelPosition=bottom;verticalAlign=top;html=1;outlineConnect=0;fillColor=#FFB366;" vertex="1" parent="1">
          <mxGeometry x="2219.5" y="-860" width="30" height="60" as="geometry" />
        </mxCell>
        <mxCell id="akscsmeylQkOnAOdpmwk-235" value="Gestor" style="shape=umlActor;verticalLabelPosition=bottom;verticalAlign=top;html=1;outlineConnect=0;fillColor=#80FF00;" vertex="1" parent="1">
          <mxGeometry x="2219.5" y="-750" width="30" height="60" as="geometry" />
        </mxCell>
        <mxCell id="akscsmeylQkOnAOdpmwk-236" value="CRUD SoftSkill" style="ellipse;whiteSpace=wrap;html=1;fillColor=#d5e8d4;strokeColor=#82b366;" vertex="1" parent="1">
          <mxGeometry x="1910" y="-730" width="120" height="80" as="geometry" />
        </mxCell>
        <mxCell id="akscsmeylQkOnAOdpmwk-237" value="CRUD Membros" style="ellipse;whiteSpace=wrap;html=1;fillColor=#d5e8d4;strokeColor=#82b366;" vertex="1" parent="1">
          <mxGeometry x="1910" y="-624" width="120" height="80" as="geometry" />
        </mxCell>
        <mxCell id="akscsmeylQkOnAOdpmwk-238" value="CRUD Segmento" style="ellipse;whiteSpace=wrap;html=1;fillColor=#d5e8d4;strokeColor=#82b366;" vertex="1" parent="1">
          <mxGeometry x="1920" y="-400" width="120" height="80" as="geometry" />
        </mxCell>
        <mxCell id="akscsmeylQkOnAOdpmwk-239" value="CRUD Clientes" style="ellipse;whiteSpace=wrap;html=1;fillColor=#d5e8d4;strokeColor=#82b366;" vertex="1" parent="1">
          <mxGeometry x="1910" y="-510" width="120" height="80" as="geometry" />
        </mxCell>
        <mxCell id="akscsmeylQkOnAOdpmwk-240" value="CRUD Demanda" style="ellipse;whiteSpace=wrap;html=1;fillColor=#d5e8d4;strokeColor=#82b366;" vertex="1" parent="1">
          <mxGeometry x="1450" y="-496" width="120" height="80" as="geometry" />
        </mxCell>
        <mxCell id="akscsmeylQkOnAOdpmwk-242" value="Editar Demanda" style="ellipse;whiteSpace=wrap;html=1;fillColor=#d5e8d4;strokeColor=#82b366;" vertex="1" parent="1">
          <mxGeometry x="1450" y="-730" width="120" height="80" as="geometry" />
        </mxCell>
        <mxCell id="akscsmeylQkOnAOdpmwk-243" value="Listar Demanda" style="ellipse;whiteSpace=wrap;html=1;fillColor=#d5e8d4;strokeColor=#82b366;" vertex="1" parent="1">
          <mxGeometry x="1450" y="-624" width="120" height="80" as="geometry" />
        </mxCell>
        <mxCell id="akscsmeylQkOnAOdpmwk-270" value="" style="endArrow=none;html=1;rounded=0;entryX=0.5;entryY=0.5;entryDx=0;entryDy=0;entryPerimeter=0;" edge="1" parent="1" source="akscsmeylQkOnAOdpmwk-230" target="akscsmeylQkOnAOdpmwk-233">
          <mxGeometry width="50" height="50" relative="1" as="geometry">
            <mxPoint x="2169.5" y="-780" as="sourcePoint" />
            <mxPoint x="2219.5" y="-830" as="targetPoint" />
          </mxGeometry>
        </mxCell>
        <mxCell id="akscsmeylQkOnAOdpmwk-271" value="" style="endArrow=none;html=1;rounded=0;entryX=0.5;entryY=0.5;entryDx=0;entryDy=0;entryPerimeter=0;" edge="1" parent="1" source="akscsmeylQkOnAOdpmwk-230" target="akscsmeylQkOnAOdpmwk-235">
          <mxGeometry width="50" height="50" relative="1" as="geometry">
            <mxPoint x="2026" y="-674" as="sourcePoint" />
            <mxPoint x="2219.5" y="-720" as="targetPoint" />
          </mxGeometry>
        </mxCell>
        <mxCell id="akscsmeylQkOnAOdpmwk-272" value="" style="endArrow=none;html=1;rounded=0;exitX=1;exitY=0.5;exitDx=0;exitDy=0;entryX=0.5;entryY=0.5;entryDx=0;entryDy=0;entryPerimeter=0;" edge="1" parent="1" source="akscsmeylQkOnAOdpmwk-236" target="akscsmeylQkOnAOdpmwk-235">
          <mxGeometry width="50" height="50" relative="1" as="geometry">
            <mxPoint x="2027" y="-739.5" as="sourcePoint" />
            <mxPoint x="2219.5" y="-700.5" as="targetPoint" />
          </mxGeometry>
        </mxCell>
        <mxCell id="akscsmeylQkOnAOdpmwk-273" value="" style="endArrow=none;html=1;rounded=0;entryX=0.5;entryY=0.5;entryDx=0;entryDy=0;entryPerimeter=0;exitX=1;exitY=0;exitDx=0;exitDy=0;" edge="1" parent="1" source="akscsmeylQkOnAOdpmwk-236" target="akscsmeylQkOnAOdpmwk-233">
          <mxGeometry width="50" height="50" relative="1" as="geometry">
            <mxPoint x="2008" y="-764" as="sourcePoint" />
            <mxPoint x="2201.5" y="-810" as="targetPoint" />
          </mxGeometry>
        </mxCell>
        <mxCell id="akscsmeylQkOnAOdpmwk-274" value="" style="endArrow=none;html=1;rounded=0;exitX=1;exitY=0.5;exitDx=0;exitDy=0;entryX=0.5;entryY=0.5;entryDx=0;entryDy=0;entryPerimeter=0;" edge="1" parent="1" source="akscsmeylQkOnAOdpmwk-237" target="akscsmeylQkOnAOdpmwk-235">
          <mxGeometry width="50" height="50" relative="1" as="geometry">
            <mxPoint x="2030" y="-600" as="sourcePoint" />
            <mxPoint x="2229.5" y="-690.5" as="targetPoint" />
          </mxGeometry>
        </mxCell>
        <mxCell id="akscsmeylQkOnAOdpmwk-275" value="Realizar Login" style="ellipse;whiteSpace=wrap;html=1;fillColor=#d5e8d4;strokeColor=#82b366;" vertex="1" parent="1">
          <mxGeometry x="1450" y="-830" width="120" height="80" as="geometry" />
        </mxCell>
        <mxCell id="akscsmeylQkOnAOdpmwk-276" value="Consultor" style="shape=umlActor;verticalLabelPosition=bottom;verticalAlign=top;html=1;outlineConnect=0;fillColor=#000000;" vertex="1" parent="1">
          <mxGeometry x="1250.5" y="-860" width="30" height="60" as="geometry" />
        </mxCell>
        <mxCell id="akscsmeylQkOnAOdpmwk-277" value="Gestor" style="shape=umlActor;verticalLabelPosition=bottom;verticalAlign=top;html=1;outlineConnect=0;fillColor=#80FF00;" vertex="1" parent="1">
          <mxGeometry x="1250.5" y="-710" width="30" height="60" as="geometry" />
        </mxCell>
        <mxCell id="akscsmeylQkOnAOdpmwk-278" value="Scrum" style="shape=umlActor;verticalLabelPosition=bottom;verticalAlign=top;html=1;outlineConnect=0;fillColor=#FFB366;" vertex="1" parent="1">
          <mxGeometry x="1170" y="-790" width="30" height="60" as="geometry" />
        </mxCell>
        <mxCell id="akscsmeylQkOnAOdpmwk-280" value="" style="endArrow=none;html=1;rounded=0;exitX=1;exitY=0.3333333333333333;exitDx=0;exitDy=0;exitPerimeter=0;" edge="1" parent="1" source="akscsmeylQkOnAOdpmwk-276" target="akscsmeylQkOnAOdpmwk-275">
          <mxGeometry width="50" height="50" relative="1" as="geometry">
            <mxPoint x="1306.5" y="-824" as="sourcePoint" />
            <mxPoint x="1500" y="-870" as="targetPoint" />
          </mxGeometry>
        </mxCell>
        <mxCell id="akscsmeylQkOnAOdpmwk-281" value="" style="endArrow=none;html=1;rounded=0;exitX=0.5;exitY=0.5;exitDx=0;exitDy=0;exitPerimeter=0;" edge="1" parent="1" source="akscsmeylQkOnAOdpmwk-278" target="akscsmeylQkOnAOdpmwk-275">
          <mxGeometry width="50" height="50" relative="1" as="geometry">
            <mxPoint x="1210" y="-760" as="sourcePoint" />
            <mxPoint x="1354" y="-670" as="targetPoint" />
          </mxGeometry>
        </mxCell>
        <mxCell id="akscsmeylQkOnAOdpmwk-282" value="" style="endArrow=none;html=1;rounded=0;exitX=0.5;exitY=0.5;exitDx=0;exitDy=0;exitPerimeter=0;entryX=0;entryY=1;entryDx=0;entryDy=0;" edge="1" parent="1" source="akscsmeylQkOnAOdpmwk-277" target="akscsmeylQkOnAOdpmwk-275">
          <mxGeometry width="50" height="50" relative="1" as="geometry">
            <mxPoint x="1301" y="-820" as="sourcePoint" />
            <mxPoint x="1445" y="-730" as="targetPoint" />
          </mxGeometry>
        </mxCell>
        <mxCell id="akscsmeylQkOnAOdpmwk-283" value="Realizar Logoff" style="ellipse;whiteSpace=wrap;html=1;fillColor=#d5e8d4;strokeColor=#82b366;" vertex="1" parent="1">
          <mxGeometry x="1450" y="-380" width="120" height="80" as="geometry" />
        </mxCell>
        <mxCell id="akscsmeylQkOnAOdpmwk-288" value="" style="endArrow=none;html=1;rounded=0;entryX=0.5;entryY=0.5;entryDx=0;entryDy=0;entryPerimeter=0;exitX=1;exitY=0.5;exitDx=0;exitDy=0;" edge="1" parent="1" source="akscsmeylQkOnAOdpmwk-239" target="akscsmeylQkOnAOdpmwk-235">
          <mxGeometry width="50" height="50" relative="1" as="geometry">
            <mxPoint x="2180" y="-600" as="sourcePoint" />
            <mxPoint x="2230" y="-650" as="targetPoint" />
          </mxGeometry>
        </mxCell>
        <mxCell id="akscsmeylQkOnAOdpmwk-289" value="" style="endArrow=none;html=1;rounded=0;entryX=0.5;entryY=0.5;entryDx=0;entryDy=0;entryPerimeter=0;exitX=1;exitY=0.5;exitDx=0;exitDy=0;" edge="1" parent="1" source="akscsmeylQkOnAOdpmwk-238" target="akscsmeylQkOnAOdpmwk-235">
          <mxGeometry width="50" height="50" relative="1" as="geometry">
            <mxPoint x="2180" y="-600" as="sourcePoint" />
            <mxPoint x="2230" y="-650" as="targetPoint" />
          </mxGeometry>
        </mxCell>
        <mxCell id="akscsmeylQkOnAOdpmwk-290" value="" style="endArrow=none;html=1;rounded=0;entryX=0.5;entryY=0.5;entryDx=0;entryDy=0;entryPerimeter=0;exitX=1;exitY=0;exitDx=0;exitDy=0;" edge="1" parent="1" source="akscsmeylQkOnAOdpmwk-239" target="akscsmeylQkOnAOdpmwk-233">
          <mxGeometry width="50" height="50" relative="1" as="geometry">
            <mxPoint x="2180" y="-600" as="sourcePoint" />
            <mxPoint x="2230" y="-650" as="targetPoint" />
          </mxGeometry>
        </mxCell>
        <mxCell id="akscsmeylQkOnAOdpmwk-291" value="" style="endArrow=none;html=1;rounded=0;entryX=0.5;entryY=0.5;entryDx=0;entryDy=0;entryPerimeter=0;exitX=1;exitY=0;exitDx=0;exitDy=0;" edge="1" parent="1" source="akscsmeylQkOnAOdpmwk-238" target="akscsmeylQkOnAOdpmwk-233">
          <mxGeometry width="50" height="50" relative="1" as="geometry">
            <mxPoint x="2180" y="-600" as="sourcePoint" />
            <mxPoint x="2230" y="-650" as="targetPoint" />
          </mxGeometry>
        </mxCell>
        <mxCell id="akscsmeylQkOnAOdpmwk-292" value="" style="endArrow=none;html=1;rounded=0;entryX=0.5;entryY=0.5;entryDx=0;entryDy=0;entryPerimeter=0;exitX=0;exitY=0.5;exitDx=0;exitDy=0;" edge="1" parent="1" source="akscsmeylQkOnAOdpmwk-243" target="akscsmeylQkOnAOdpmwk-276">
          <mxGeometry width="50" height="50" relative="1" as="geometry">
            <mxPoint x="1770" y="-520" as="sourcePoint" />
            <mxPoint x="1820" y="-570" as="targetPoint" />
          </mxGeometry>
        </mxCell>
        <mxCell id="akscsmeylQkOnAOdpmwk-293" value="" style="endArrow=none;html=1;rounded=0;entryX=0.5;entryY=0.5;entryDx=0;entryDy=0;entryPerimeter=0;exitX=-0.008;exitY=0.361;exitDx=0;exitDy=0;exitPerimeter=0;" edge="1" parent="1" source="akscsmeylQkOnAOdpmwk-242" target="akscsmeylQkOnAOdpmwk-276">
          <mxGeometry width="50" height="50" relative="1" as="geometry">
            <mxPoint x="1770" y="-520" as="sourcePoint" />
            <mxPoint x="1820" y="-570" as="targetPoint" />
          </mxGeometry>
        </mxCell>
        <mxCell id="akscsmeylQkOnAOdpmwk-294" value="" style="endArrow=none;html=1;rounded=0;entryX=0.5;entryY=0.5;entryDx=0;entryDy=0;entryPerimeter=0;exitX=0;exitY=0.5;exitDx=0;exitDy=0;" edge="1" parent="1" source="akscsmeylQkOnAOdpmwk-242" target="akscsmeylQkOnAOdpmwk-277">
          <mxGeometry width="50" height="50" relative="1" as="geometry">
            <mxPoint x="1770" y="-520" as="sourcePoint" />
            <mxPoint x="1820" y="-570" as="targetPoint" />
          </mxGeometry>
        </mxCell>
        <mxCell id="akscsmeylQkOnAOdpmwk-295" value="" style="endArrow=none;html=1;rounded=0;exitX=0.5;exitY=0.5;exitDx=0;exitDy=0;exitPerimeter=0;entryX=0;entryY=0.5;entryDx=0;entryDy=0;" edge="1" parent="1" source="akscsmeylQkOnAOdpmwk-277" target="akscsmeylQkOnAOdpmwk-243">
          <mxGeometry width="50" height="50" relative="1" as="geometry">
            <mxPoint x="1770" y="-520" as="sourcePoint" />
            <mxPoint x="1820" y="-570" as="targetPoint" />
          </mxGeometry>
        </mxCell>
        <mxCell id="akscsmeylQkOnAOdpmwk-296" value="" style="endArrow=none;html=1;rounded=0;entryX=0.5;entryY=0.5;entryDx=0;entryDy=0;entryPerimeter=0;exitX=0;exitY=0.5;exitDx=0;exitDy=0;" edge="1" parent="1" source="akscsmeylQkOnAOdpmwk-242">
          <mxGeometry width="50" height="50" relative="1" as="geometry">
            <mxPoint x="1770" y="-510" as="sourcePoint" />
            <mxPoint x="1185" y="-750" as="targetPoint" />
          </mxGeometry>
        </mxCell>
        <mxCell id="akscsmeylQkOnAOdpmwk-297" value="" style="endArrow=none;html=1;rounded=0;exitX=0.5;exitY=0.5;exitDx=0;exitDy=0;exitPerimeter=0;entryX=0;entryY=0;entryDx=0;entryDy=0;" edge="1" parent="1" source="akscsmeylQkOnAOdpmwk-278" target="akscsmeylQkOnAOdpmwk-243">
          <mxGeometry width="50" height="50" relative="1" as="geometry">
            <mxPoint x="1770" y="-520" as="sourcePoint" />
            <mxPoint x="1820" y="-570" as="targetPoint" />
          </mxGeometry>
        </mxCell>
        <mxCell id="akscsmeylQkOnAOdpmwk-298" value="" style="endArrow=none;html=1;rounded=0;exitX=0.5;exitY=0.5;exitDx=0;exitDy=0;exitPerimeter=0;entryX=0;entryY=0.5;entryDx=0;entryDy=0;" edge="1" parent="1" source="akscsmeylQkOnAOdpmwk-277" target="akscsmeylQkOnAOdpmwk-240">
          <mxGeometry width="50" height="50" relative="1" as="geometry">
            <mxPoint x="1770" y="-520" as="sourcePoint" />
            <mxPoint x="1820" y="-570" as="targetPoint" />
          </mxGeometry>
        </mxCell>
        <mxCell id="akscsmeylQkOnAOdpmwk-299" value="" style="endArrow=none;html=1;rounded=0;exitX=0.5;exitY=0.5;exitDx=0;exitDy=0;exitPerimeter=0;entryX=0;entryY=0.5;entryDx=0;entryDy=0;" edge="1" parent="1" source="akscsmeylQkOnAOdpmwk-277" target="akscsmeylQkOnAOdpmwk-283">
          <mxGeometry width="50" height="50" relative="1" as="geometry">
            <mxPoint x="1770" y="-520" as="sourcePoint" />
            <mxPoint x="1820" y="-570" as="targetPoint" />
          </mxGeometry>
        </mxCell>
        <mxCell id="akscsmeylQkOnAOdpmwk-300" value="" style="endArrow=none;html=1;rounded=0;exitX=0.5;exitY=0.5;exitDx=0;exitDy=0;exitPerimeter=0;entryX=0.335;entryY=0.05;entryDx=0;entryDy=0;entryPerimeter=0;" edge="1" parent="1" source="akscsmeylQkOnAOdpmwk-278" target="akscsmeylQkOnAOdpmwk-240">
          <mxGeometry width="50" height="50" relative="1" as="geometry">
            <mxPoint x="1770" y="-520" as="sourcePoint" />
            <mxPoint x="1820" y="-570" as="targetPoint" />
          </mxGeometry>
        </mxCell>
        <mxCell id="akscsmeylQkOnAOdpmwk-301" value="" style="endArrow=none;html=1;rounded=0;exitX=0.5;exitY=0.5;exitDx=0;exitDy=0;exitPerimeter=0;" edge="1" parent="1" source="akscsmeylQkOnAOdpmwk-277" target="akscsmeylQkOnAOdpmwk-283">
          <mxGeometry width="50" height="50" relative="1" as="geometry">
            <mxPoint x="1770" y="-520" as="sourcePoint" />
            <mxPoint x="1820" y="-570" as="targetPoint" />
          </mxGeometry>
        </mxCell>
        <mxCell id="akscsmeylQkOnAOdpmwk-302" value="" style="endArrow=none;html=1;rounded=0;exitX=0.5;exitY=0.5;exitDx=0;exitDy=0;exitPerimeter=0;entryX=0;entryY=0;entryDx=0;entryDy=0;" edge="1" parent="1" source="akscsmeylQkOnAOdpmwk-276" target="akscsmeylQkOnAOdpmwk-283">
          <mxGeometry width="50" height="50" relative="1" as="geometry">
            <mxPoint x="1770" y="-520" as="sourcePoint" />
            <mxPoint x="1820" y="-570" as="targetPoint" />
          </mxGeometry>
        </mxCell>
      </root>
    </mxGraphModel>
  </diagram>
</mxfile>
